<svg xmlns="http://www.w3.org/2000/svg" viewBox="0 0 512 512" role="img" aria-labelledby="title desc">
  <title id="title">Bar4Beards logo</title>
  <desc id="desc">Barbershop crest with scissors, combs and red diagonal stripes</desc>
  <defs>
    <linearGradient id="blade" x1="0" y1="0" x2="1" y2="1">
      <stop offset="0" stop-color="#f1f1f1" />
      <stop offset="0.45" stop-color="#b7b7b7" />
      <stop offset="1" stop-color="#6f6f6f" />
    </linearGradient>
    <linearGradient id="handle" x1="0" y1="0" x2="0" y2="1">
      <stop offset="0" stop-color="#111" />
      <stop offset="1" stop-color="#000" />
    </linearGradient>
    <clipPath id="shieldClip">
      <path d="M256 76c54 0 112 11 144 26v132c0 83-53 143-144 202-91-59-144-119-144-202V102c32-15 90-26 144-26z" />
    </clipPath>
    <clipPath id="roundClip">
      <circle cx="256" cy="256" r="240" />
    </clipPath>
  </defs>

  <rect width="512" height="512" fill="#fff" />

  <circle cx="256" cy="256" r="244" fill="#fff" stroke="#111" stroke-width="10" />

  <g transform="translate(0 4)" clip-path="url(#roundClip)">
    <path d="M256 36c8 20 20 32 35 36-18 5-28 18-35 39-7-21-17-34-35-39 15-4 27-16 35-36z" fill="#111"/>
    <path d="M150 52c18 4 31 16 39 35 7-20 20-31 38-35-18-4-31-16-38-35-8 19-21 31-39 35z" fill="#111"/>
    <path d="M362 52c18 4 31 16 39 35 7-20 20-31 38-35-18-4-31-16-38-35-8 19-21 31-39 35z" fill="#111"/>
    <path d="M94 110c16 0 28 10 34 30 4-17 15-27 33-31-17-5-28-16-33-33-6 20-18 31-34 34z" fill="#111"/>
    <path d="M418 110c16 3 28 14 34 34 5-17 16-28 33-33-18-4-29-14-33-31-6 20-18 30-34 30z" fill="#111"/>
    <path d="M256 88c38 0 77 7 109 17v125c0 68-42 121-109 166-67-45-109-98-109-166V105c32-10 71-17 109-17z" fill="#fff" stroke="#111" stroke-width="8"/>
    <g clip-path="url(#shieldClip)">
      <rect x="96" y="80" width="320" height="310" fill="#fbf7f2"/>
      <g opacity="0.95">
        <rect x="88" y="96" width="360" height="36" transform="rotate(-32 88 96)" fill="#a13421"/>
        <rect x="72" y="146" width="360" height="36" transform="rotate(-32 72 146)" fill="#a13421"/>
        <rect x="56" y="196" width="360" height="36" transform="rotate(-32 56 196)" fill="#a13421"/>
        <rect x="40" y="246" width="360" height="36" transform="rotate(-32 40 246)" fill="#a13421"/>
        <rect x="24" y="296" width="360" height="36" transform="rotate(-32 24 296)" fill="#a13421"/>
        <rect x="8" y="346" width="360" height="36" transform="rotate(-32 8 346)" fill="#a13421"/>
      </g>
      <rect x="96" y="80" width="320" height="310" fill="none" stroke="#111" stroke-width="8"/>
    </g>

    <g opacity="0.95">
      <rect x="122" y="158" width="38" height="122" rx="13" fill="#111" transform="rotate(-24 122 158)"/>
      <rect x="352" y="158" width="38" height="122" rx="13" fill="#111" transform="rotate(24 352 158)"/>
      <rect x="128" y="138" width="18" height="88" rx="9" fill="#f1f1f1" transform="rotate(-24 128 138)"/>
      <rect x="366" y="138" width="18" height="88" rx="9" fill="#f1f1f1" transform="rotate(24 366 138)"/>
    </g>

    <g>
      <ellipse cx="136" cy="318" rx="20" ry="42" fill="#111" transform="rotate(-30 136 318)"/>
      <ellipse cx="376" cy="318" rx="20" ry="42" fill="#111" transform="rotate(30 376 318)"/>
      <rect x="118" y="306" width="44" height="26" rx="13" fill="#111" transform="rotate(-30 118 306)"/>
      <rect x="350" y="306" width="44" height="26" rx="13" fill="#111" transform="rotate(30 350 306)"/>
      <circle cx="128" cy="328" r="16" fill="#fff" stroke="#111" stroke-width="6"/>
      <circle cx="384" cy="328" r="16" fill="#fff" stroke="#111" stroke-width="6"/>
      <circle cx="110" cy="350" r="8" fill="#111"/>
      <circle cx="402" cy="350" r="8" fill="#111"/>
    </g>

    <g transform="translate(256 258)">
      <g transform="rotate(-18)">
        <path d="M0-92c13 36 16 77 10 126l-12 10-12-10C-16-15-13-56 0-92z" fill="url(#blade)" stroke="#111" stroke-width="5" stroke-linejoin="round"/>
        <path d="M-6 38l-18 94c6 7 14 11 24 11s18-4 24-11l-18-94z" fill="url(#handle)"/>
        <circle cx="0" cy="48" r="10" fill="#fff" stroke="#111" stroke-width="5"/>
        <circle cx="0" cy="90" r="9" fill="#fff" stroke="#111" stroke-width="4"/>
      </g>
      <g transform="rotate(18)">
        <path d="M0-92c13 36 16 77 10 126l-12 10-12-10C-16-15-13-56 0-92z" fill="url(#blade)" stroke="#111" stroke-width="5" stroke-linejoin="round"/>
        <path d="M-6 38l-18 94c6 7 14 11 24 11s18-4 24-11l-18-94z" fill="url(#handle)"/>
        <circle cx="0" cy="48" r="10" fill="#fff" stroke="#111" stroke-width="5"/>
        <circle cx="0" cy="90" r="9" fill="#fff" stroke="#111" stroke-width="4"/>
      </g>
      <circle cx="0" cy="-6" r="10" fill="#fff" stroke="#111" stroke-width="4"/>
      <circle cx="0" cy="-6" r="4" fill="#111"/>
    </g>

    <path d="M135 392c26 12 49 17 69 14l-18 24c-30 6-58 2-84-13l33-25zm242 0c-26 12-49 17-69 14l18 24c30 6 58 2 84-13l-33-25z" fill="#111"/>
    <path d="M114 404c19 10 36 16 52 18l-12 16c-18-4-35-10-52-20l12-14zm284 0c-19 10-36 16-52 18l12 16c18-4 35-10 52-20l-12-14z" fill="#111"/>
  </g>
</svg>